<svg data-v-423bf9ae="" xmlns="http://www.w3.org/2000/svg" viewBox="0 0 214.65471257965748 60" class="font"><!----><!----><!----><g data-v-423bf9ae="" id="ebbe9e78-bc4c-49b5-82aa-3c3d2aff6ce5" fill="white" transform="matrix(5.381165981292725,0,0,5.381165981292725,-6.618823528289795,-16.143497467041016)"><path d="M4.58 6.83L4.58 6.83Q6.08 6.83 6.87 7.82L6.87 7.82L6.87 7.82Q7.67 8.81 7.67 10.51L7.67 10.51L7.67 10.51Q7.67 10.81 7.66 10.95L7.66 10.95L2.84 10.95L2.84 10.95Q2.91 11.96 3.35 12.38L3.35 12.38L3.35 12.38Q3.79 12.81 4.55 12.81L4.55 12.81L4.55 12.81Q5.60 12.81 6.13 11.94L6.13 11.94L7.46 12.67L7.46 12.67Q7 13.41 6.22 13.78L6.22 13.78L6.22 13.78Q5.43 14.15 4.54 14.15L4.54 14.15L4.54 14.15Q3.61 14.15 2.86 13.76L2.86 13.76L2.86 13.76Q2.11 13.37 1.67 12.54L1.67 12.54L1.67 12.54Q1.23 11.72 1.23 10.49L1.23 10.49L1.23 10.49Q1.23 9.24 1.68 8.42L1.68 8.42L1.68 8.42Q2.13 7.60 2.88 7.22L2.88 7.22L2.88 7.22Q3.64 6.83 4.58 6.83L4.58 6.83ZM2.88 9.74L6.08 9.74L6.08 9.74Q6.01 8.96 5.63 8.56L5.63 8.56L5.63 8.56Q5.26 8.16 4.55 8.16L4.55 8.16L4.55 8.16Q3.88 8.16 3.44 8.53L3.44 8.53L3.44 8.53Q3.01 8.89 2.88 9.74L2.88 9.74ZM13.30 6.85L13.30 6.85Q14.55 6.85 15.20 7.62L15.20 7.62L15.20 7.62Q15.86 8.39 15.86 10.05L15.86 10.05L15.86 14L14.29 14L14.29 10.33L14.29 10.33Q14.29 9.53 14.20 9.09L14.20 9.09L14.20 9.09Q14.11 8.64 13.84 8.41L13.84 8.41L13.84 8.41Q13.57 8.19 13.02 8.19L13.02 8.19L13.02 8.19Q12.36 8.19 11.93 8.54L11.93 8.54L11.93 8.54Q11.49 8.89 11.27 9.34L11.27 9.34L11.27 14L9.70 14L9.70 9.17L9.70 7L10.86 7L10.86 7Q10.89 7.07 10.96 7.31L10.96 7.31L10.96 7.31Q11.02 7.55 11.12 7.84L11.12 7.84L11.12 7.84Q11.48 7.36 12.03 7.10L12.03 7.10L12.03 7.10Q12.59 6.85 13.30 6.85L13.30 6.85ZM22.39 7L24.02 7L22.32 14L19.74 14L18.03 7L19.67 7L20.89 12.67L21.17 12.67L22.39 7ZM29.50 5.46L29.50 5.46Q28.97 5.46 28.61 5.10L28.61 5.10L28.61 5.10Q28.25 4.75 28.25 4.23L28.25 4.23L28.25 4.23Q28.25 3.71 28.61 3.35L28.61 3.35L28.61 3.35Q28.97 3.00 29.50 3.00L29.50 3.00L29.50 3.00Q30.03 3.00 30.38 3.35L30.38 3.35L30.38 3.35Q30.73 3.70 30.73 4.23L30.73 4.23L30.73 4.23Q30.73 4.75 30.38 5.10L30.38 5.10L30.38 5.10Q30.03 5.46 29.50 5.46L29.50 5.46ZM30.31 12.67L32.21 12.67L32.21 14L28.74 14L28.74 8.33L26.40 8.33L26.40 7L30.31 7L30.31 12.67ZM37.84 14.15L37.84 14.15Q36.43 14.15 35.49 13.27L35.49 13.27L35.49 13.27Q34.55 12.38 34.55 10.49L34.55 10.49L34.55 10.49Q34.55 9.21 35.01 8.39L35.01 8.39L35.01 8.39Q35.46 7.57 36.20 7.20L36.20 7.20L36.20 7.20Q36.95 6.83 37.84 6.83L37.84 6.83L37.84 6.83Q38.74 6.83 39.47 7.20L39.47 7.20L39.47 7.20Q40.21 7.57 40.66 8.39L40.66 8.39L40.66 8.39Q41.12 9.21 41.12 10.49L41.12 10.49L41.12 10.49Q41.12 11.77 40.66 12.59L40.66 12.59L40.66 12.59Q40.21 13.41 39.47 13.78L39.47 13.78L39.47 13.78Q38.74 14.15 37.84 14.15L37.84 14.15ZM37.84 12.81L37.84 12.81Q38.50 12.81 38.98 12.27L38.98 12.27L38.98 12.27Q39.47 11.73 39.47 10.49L39.47 10.49L39.47 10.49Q39.47 9.25 38.98 8.71L38.98 8.71L38.98 8.71Q38.50 8.18 37.84 8.18L37.84 8.18L37.84 8.18Q37.17 8.18 36.69 8.71L36.69 8.71L36.69 8.71Q36.20 9.24 36.20 10.49L36.20 10.49L36.20 10.49Q36.20 11.73 36.69 12.27L36.69 12.27L36.69 12.27Q37.17 12.81 37.84 12.81L37.84 12.81Z"></path></g><!----><!----></svg>