<?xml version="1.0" encoding="UTF-8" standalone="no" ?>
<!DOCTYPE svg PUBLIC "-//W3C//DTD SVG 1.1//EN" "http://www.w3.org/Graphics/SVG/1.1/DTD/svg11.dtd">
<svg xmlns="http://www.w3.org/2000/svg" xmlns:xlink="http://www.w3.org/1999/xlink" version="1.1" width="1080" height="1080" viewBox="0 0 1080 1080" xml:space="preserve">
<desc>Created with Fabric.js 5.2.4</desc>
<defs>
</defs>
<g transform="matrix(1 0 0 1 540 540)" id="ba7a6580-bf84-43e0-a4ff-75146a7d05e7"  >
<rect style="stroke: none; stroke-width: 1; stroke-dasharray: none; stroke-linecap: butt; stroke-dashoffset: 0; stroke-linejoin: miter; stroke-miterlimit: 4; fill: rgb(255,255,255); fill-rule: nonzero; opacity: 1; visibility: hidden;" vector-effect="non-scaling-stroke"  x="-540" y="-540" rx="0" ry="0" width="1080" height="1080" />
</g>
<g transform="matrix(1 0 0 1 540 540)" id="0c11d008-fb29-4650-94b1-30e39b013277"  >
</g>
<g transform="matrix(1 0 0 1 556.82 595.13)"  >
<g style="" vector-effect="non-scaling-stroke"   >
		<g transform="matrix(1 0 0 1 0 0)"  >
<rect style="stroke: none; stroke-width: 1; stroke-dasharray: none; stroke-linecap: butt; stroke-dashoffset: 0; stroke-linejoin: miter; stroke-miterlimit: 4; fill: rgb(255,255,255); fill-rule: nonzero; opacity: 1; visibility: hidden;" vector-effect="non-scaling-stroke"  x="-540" y="-540" rx="0" ry="0" width="1080" height="1080" />
</g>
		<g transform="matrix(1 0 0 1 0 0)"  >
<rect style="stroke: none; stroke-width: 1; stroke-dasharray: none; stroke-linecap: butt; stroke-dashoffset: 0; stroke-linejoin: miter; stroke-miterlimit: 4; fill: rgb(81,181,255); fill-rule: nonzero; opacity: 1; visibility: hidden;" vector-effect="non-scaling-stroke"  x="-540" y="-540" rx="0" ry="0" width="1080" height="1080" />
</g>
		<g transform="matrix(5.89 0 0 5.89 -18.41 -23.76)"  >
<path style="stroke: rgb(0,0,0); stroke-width: 0; stroke-dasharray: none; stroke-linecap: butt; stroke-dashoffset: 0; stroke-linejoin: miter; stroke-miterlimit: 4; fill: rgb(81,181,255); fill-rule: nonzero; opacity: 1;" vector-effect="non-scaling-stroke"  transform=" translate(-49.5, -49.96)" d="M 21.81 60.287 L 21.81 18.564 C 21.81 17.543 20.98 16.718 19.964 16.718 C 18.947999999999997 16.718 18.118 17.544 18.118 18.564 L 18.118 60.287 L 21.81 60.287 z M 18.117 74.94 L 18.117 81.358 C 18.117 82.37751764818765 18.943482351812357 83.20400000000001 19.963 83.20400000000001 C 20.982517648187645 83.20400000000001 21.809 82.37751764818765 21.809 81.358 L 21.809 74.94 L 18.117 74.94 z M 47.654 44.408 L 47.654 81.358 C 47.654 82.37751764818765 48.480482351812356 83.20400000000001 49.5 83.20400000000001 C 50.519517648187644 83.20400000000001 51.346000000000004 82.37751764818765 51.346000000000004 81.358 L 51.346000000000004 44.408 L 47.654 44.408 z M 51.346 29.759 L 51.346 18.564 C 51.31321596676172 17.568125930855114 50.49641354588873 16.77777005841695 49.5 16.77777005841695 C 48.50358645411126 16.77777005841695 47.686784033238276 17.568125930855114 47.653999999999996 18.564 L 47.653999999999996 29.759 L 51.346 29.759 z M 80.883 47.729 L 80.883 18.564 C 80.85965578182713 17.560945359228935 80.03982625047612 16.7599738292453 79.03649999999999 16.7599738292453 C 78.03317374952387 16.7599738292453 77.21334421817286 17.560945359228935 77.19 18.564 L 77.19 47.729 L 80.883 47.729 z M 77.19 62.379 L 77.19 81.358 C 77.19 82.37779379056256 78.01670620943744 83.2045 79.03649999999999 83.2045 C 80.05629379056256 83.2045 80.883 82.37779379056256 80.883 81.358 L 80.883 62.379 L 77.19 62.379 z M 30.427 67.613 C 30.42726530804986 69.00148964092102 29.875807446903508 70.33318652965225 28.893996988277877 71.31499698827787 C 27.91218652965225 72.2968074469035 26.58048964092102 72.84826530804986 25.192 72.848 L 14.735 72.848 C 11.843789334635797 72.848 9.5 70.5042106653642 9.5 67.613 C 9.498671179131673 66.22427662728515 10.049819488565436 64.8920643916865 11.031889446136141 63.910182031051335 C 12.013959403706846 62.92829967041617 13.346276906485048 62.37740587714808 14.735 62.379 L 25.191 62.379 C 26.579814882560882 62.37740630538721 27.912234857655914 62.92826826850214 28.894463499001706 63.91012172702083 C 29.876692140347497 64.89197518553952 30.42806310621305 66.2241846099318 30.427 67.613 z M 59.963 37.082 C 59.96326524959615 38.47031636087855 59.41194464670564 39.80186165864458 58.43035049099303 40.78364335622875 C 57.44875633528042 41.76542505381292 56.11731638621764 42.31700002533909 54.729 42.317 L 44.265 42.317 C 41.4234248416105 42.248961492683705 39.15531061407563 39.92588959666935 39.15531061407563 37.0835 C 39.15531061407563 34.24111040333065 41.4234248416105 31.9180385073163 44.26499999999999 31.85 L 54.729 31.85 C 57.61887751212811 31.84999978901965 59.96189572888341 34.19212269885223 59.963 37.082 z M 89.5 55.052 C 89.5 57.943210665364205 87.1562106653642 60.287 84.265 60.287 L 73.802 60.287 C 70.95176232641737 60.23127610650317 68.67030835742986 57.90478233967735 68.67030835742986 55.054 C 68.67030835742986 52.20321766032265 70.95176232641737 49.87672389349683 73.802 49.821 L 84.265 49.821 C 85.65287792236576 49.82046946564537 86.98412272112827 50.371293070878764 87.9658756842849 51.35229588850479 C 88.9476286474415 52.33329870613082 89.49946966837152 53.66412207755676 89.5 55.052 z" stroke-linecap="round" />
</g>
</g>
</g>
</svg>